<svg xmlns="http://www.w3.org/2000/svg" width="24" height="24" viewBox="0 0 24 24" fill="none">
<g clip-path="url(#clip0_1743_4204)">
<path d="M15.817 14.6485L23.9335 6.53196L17.5075 0.105957L9.391 8.22246L11.8 10.6315L10.5875 11.844L8.1585 9.41546L0.0415039 17.5315L6.4675 23.958L14.5845 15.8415L12.156 13.413L13.3685 12.2005L15.817 14.6485ZM11.8785 15.8415L6.4665 21.253L2.747 17.5325L8.1585 12.1215L9.2345 13.1975L7.6075 14.8245L9.176 16.393L10.803 14.766L11.8785 15.8415ZM12.096 8.22296L17.5075 2.81196L21.2275 6.53196L15.816 11.9435L14.721 10.848L16.393 9.17596L14.8245 7.60746L13.1525 9.27946L12.096 8.22296Z" fill="#629460"/>
</g>
<defs fill="#000000">
<clipPath id="clip0_1743_4204" fill="#000000">
<rect width="24" height="24" fill="white"/>
</clipPath>
</defs>
</svg>