<svg width="50" height="25" viewBox="0 0 50 25" fill="none" xmlns="http://www.w3.org/2000/svg">
<path d="M7.23965e-05 19.0443C7.23965e-05 19.9901 0.652811 20.7562 1.45795 20.7562H2.90289C3.09555 23.0614 4.75184 24.8628 6.76613 24.8628C8.78041 24.8628 10.4367 23.0614 10.6294 20.7562H39.2406C39.4333 23.0614 41.0888 24.8628 43.1038 24.8628C45.1181 24.8628 46.7744 23.0614 46.9671 20.7562H48.5414C49.3473 20.7562 50 19.9901 50 19.0443V1.71197C50 0.766123 49.3473 0 48.5414 0H8.04572C7.6144 0 7.18739 0.0666551 6.77547 0.196593C6.55744 0.265274 6.3435 0.352097 6.1351 0.455709L1.71962 0.552065C1.67412 0.356147 1.54666 0.197691 1.37808 0.136012C1.1584 0.0556031 0.920017 0.156938 0.795148 0.383738L0.460943 0.990814C0.393369 1.11358 0.366196 1.26098 0.384455 1.40552L0.632683 3.36817C0.669992 3.66297 0.885583 3.88125 1.13956 3.88125H1.46737C1.7726 3.88125 2.01019 3.56999 1.97669 3.21376L1.82307 1.58203H4.67255C4.10104 2.21948 3.66404 3.01362 3.40675 3.90234L0.175406 15.93C0.0589479 16.3325 0 16.7543 0 17.1787V19.0443H7.23965e-05ZM8.81492 20.7562C8.6352 21.8911 7.78477 22.7534 6.76613 22.7534C5.74748 22.7534 4.89705 21.8911 4.71733 20.7562C4.69361 20.6103 4.68139 20.4601 4.68139 20.3065C4.68139 18.9574 5.61664 17.8597 6.76613 17.8597C7.91561 17.8597 8.85087 18.9574 8.85087 20.3065C8.85087 20.4601 8.83864 20.6103 8.81492 20.7562ZM39.5128 13.7992C39.4565 13.7992 39.406 13.8359 39.3808 13.895L38.0026 17.136C37.7693 17.6848 37.2998 18.0257 36.7773 18.0257H15.447C14.9892 18.0257 14.5638 17.7592 14.3091 17.3127C14.0544 16.8662 14.0063 16.303 14.1807 15.8062C14.2054 15.7356 14.1868 15.679 14.1669 15.644C14.1469 15.609 14.1094 15.5673 14.0444 15.5673H8.85093C8.5135 15.5673 8.23989 15.2461 8.23989 14.8501C8.23989 14.454 8.5135 14.1329 8.85093 14.1329H14.0444C14.5022 14.1329 14.9276 14.3994 15.1824 14.8459C15.4371 15.2924 15.4851 15.8556 15.3107 16.3524C15.286 16.4231 15.3046 16.4796 15.3246 16.5146C15.3446 16.5496 15.3821 16.5914 15.4471 16.5914H36.7774C36.8337 16.5914 36.8842 16.5547 36.9093 16.4956L38.2875 13.2545C38.5209 12.7058 38.9904 12.3649 39.5129 12.3649H44.5058C44.8432 12.3649 45.1168 12.686 45.1168 13.0821C45.1168 13.4781 44.8432 13.7993 44.5058 13.7993H39.5128V13.7992ZM45.1526 20.7562C44.9729 21.8911 44.1225 22.7534 43.1038 22.7534C42.0845 22.7534 41.2348 21.8911 41.055 20.7562C41.0313 20.6103 41.0191 20.4601 41.0191 20.3065C41.0191 18.9574 41.9536 17.8597 43.1038 17.8597C44.2533 17.8597 45.1886 18.9574 45.1886 20.3065C45.1886 20.4601 45.1763 20.6103 45.1526 20.7562ZM48.7752 13.082C49.0333 13.082 49.2424 13.5791 49.2424 14.1922C49.2424 14.8054 49.0333 15.3024 48.7752 15.3024C48.5171 15.3024 48.3079 14.8054 48.3079 14.1922C48.3079 13.5791 48.5171 13.082 48.7752 13.082ZM48.7752 16.1982C49.0333 16.1982 49.2424 16.6953 49.2424 17.3084C49.2424 17.9216 49.0333 18.4186 48.7752 18.4186C48.5171 18.4186 48.3079 17.9215 48.3079 17.3084C48.3079 16.6954 48.5171 16.1982 48.7752 16.1982ZM14.0258 9.93051L15.6746 2.61292C15.7414 2.31609 15.9702 2.10937 16.2318 2.10937H47.2735C47.5918 2.10937 47.8498 2.4122 47.8498 2.78589V7.34569C47.8498 7.50583 47.8014 7.66083 47.7132 7.78308L45.722 10.5409C45.6126 10.6925 45.4517 10.78 45.2823 10.78H14.583C14.2048 10.7799 13.9291 10.3596 14.0258 9.93051ZM3.59373 10.2209L5.11422 4.5614C5.35814 3.73385 5.8469 3.03758 6.49216 2.59909C6.72709 2.43911 6.9787 2.31651 7.24123 2.23391C7.50348 2.15122 7.77392 2.10929 8.04572 2.10929H13.3675C13.6051 2.10929 13.7797 2.37068 13.7231 2.64153L12.7265 7.40694C12.5474 8.26343 11.9113 8.87532 11.1679 8.92097C10.597 8.95598 10.059 9.24421 9.69109 9.7578L9.577 9.91701C9.18507 10.4641 8.60717 10.7799 7.99814 10.7799H3.94296C3.69552 10.7799 3.51933 10.4979 3.59373 10.2209ZM1.00937 17.2976L1.06976 16.683C1.09046 16.4724 1.2213 16.2995 1.39706 16.2505L3.04753 15.7899C3.34565 15.7067 3.61997 16.0063 3.57073 16.3612L3.47102 17.0801C3.44198 17.2895 3.30431 17.4552 3.12668 17.4945L1.51553 17.8507C1.23107 17.9137 0.976233 17.635 1.00937 17.2976Z" fill="#4C5048"/>
</svg>
